<svg xmlns="http://www.w3.org/2000/svg" width="512" height="512"><g fill="none"><path fill="#f0f1f2" d="M319.7 27.2 290.3 19H24.9A24.9 24.9 0 0 0 0 43.9v203.3C0 260 9.6 270.5 22 272a2 2 0 0 1 1.6 3l-14.7 31c-3 6.2 3.5 12.8 9.9 9.9l91.5-42.5c1.6-.8 3.4-1.2 5.2-1.2h203.9a24.9 24.9 0 0 0 24.9-24.9l.3-195a24.9 24.9 0 0 0-25-25z"/><path fill="#f0f1f2" d="M351.5 43.9v203.3a24.9 24.9 0 0 1-24.9 25h-43.2a24.9 24.9 0 0 0 24.9-25V44a24.9 24.9 0 0 0-25-24.9h43.3a24.9 24.9 0 0 1 25 24.9z"/><path fill="#7fbec6" d="M185.4 194.7h266.2l31.7 6.7a24.9 24.9 0 0 1 25 24.9L505 420.5c0 12.7-9.6 23.2-22 24.7a2 2 0 0 0-1.6 3l13.5 28.6c3 6.3-3.1 10-9.5 7l-26.4-8.1-57.4-26.7c-1.6-.8-3.4-1.2-5.2-1.2H185.4a24.9 24.9 0 0 1-25-24.9V219.6a24.9 24.9 0 0 1 25-24.9z"/><path fill="#7fbec6" d="M512 219.6V423a25 25 0 0 1-22 24.8 2 2 0 0 0-1.6 2.9l14.7 31c3 6.3-3.5 12.9-9.9 10l-34-16-7.7-16a10.7 10.7 0 0 1 5.2-14.2c8.3-4 14-12.6 14-22.5V219.6a24.9 24.9 0 0 0-24.8-24.9H487a24.9 24.9 0 0 1 24.9 25z"/><g fill="#5ba7b1"><path d="M438.6 291H244.8a7.7 7.7 0 1 1 0-15.5h193.8a7.7 7.7 0 1 1 0 15.4zM415.6 332.1H244.8a7.7 7.7 0 1 1 0-15.4h170.8a7.7 7.7 0 1 1 0 15.4zM438.6 373.3H244.8a7.7 7.7 0 1 1 0-15.4h193.8a7.7 7.7 0 1 1 0 15.4z"/></g><g fill="#5ba7b1"><path d="M446.3 365.6c0 4.3-3.4 7.7-7.7 7.7h-6.8V358h6.8c4.3 0 7.7 3.4 7.7 7.7zM438.6 291h-6.8v-15.5h6.8a7.7 7.7 0 1 1 0 15.4z"/></g><g fill="#d2d5d9"><path d="M300.9 124h-114a7.7 7.7 0 1 1 0-15.5h114a7.7 7.7 0 1 1 0 15.5zM273 165.2h-86a7.7 7.7 0 1 1 0-15.5h86a7.7 7.7 0 1 1 0 15.5zM95 185.2a13.7 13.7 0 0 1-12.8-13.7V142c0-7.4 6-13.4 13.3-13.4 6.9 0 13.3-2.7 18.1-7.8a25 25 0 1 0-42.9-17.4c0 7.4-5.9 13.6-13.2 13.7-7.5.1-13.6-6-13.6-13.4a51.7 51.7 0 1 1 66.6 49.5 2 2 0 0 0-1.5 2v16.5c0 7.7-6.4 13.8-14 13.4zm.6 53.8a13.4 13.4 0 1 0 0-26.8 13.4 13.4 0 0 0 0 26.8z"/></g></g></svg>