<svg xmlns="http://www.w3.org/2000/svg" width="512" height="512"><g fill="none"><path fill="#d2d5d9" d="M315.6 395.5h-29.2a31.6 31.6 0 1 1-60.8 0h-29.2l-11.8 89h142.8z"/><path fill="#9fa5ab" d="M351 492.2H161a7.7 7.7 0 1 1 0-15.5h190a7.7 7.7 0 1 1 0 15.5z"/><path fill="#f0f1f2" d="M512 364.7H0V39.6C0 28.2 9.2 19 20.6 19h470.8c11.4 0 20.6 9.2 20.6 20.6z"/><path fill="#7fbec6" d="M491.4 404H20.6A20.6 20.6 0 0 1 0 383.6v-48h512v48c0 11.3-9.2 20.6-20.6 20.6z"/><path fill="#dcb35c" d="M415.4 193.7H284l-19.3-69 166.8-12.3z"/><path fill="#cd992c" d="m431.6 112.4-16.2 81.3h-17.5l16-80zM309 175.2a7.7 7.7 0 0 1-7.7-7.7v-21.7a7.7 7.7 0 1 1 15.5 0v21.7c0 4.2-3.5 7.7-7.8 7.7zm26.3 0a7.7 7.7 0 0 1-7.7-7.7v-21.7a7.7 7.7 0 1 1 15.4 0v21.7c0 4.2-3.4 7.7-7.7 7.7zm26.3 0a7.7 7.7 0 0 1-7.7-7.7v-21.7a7.7 7.7 0 1 1 15.4 0v21.7c0 4.2-3.5 7.7-7.7 7.7zm26.2 0a7.7 7.7 0 0 1-7.7-7.7v-21.7a7.7 7.7 0 1 1 15.5 0v21.7c0 4.2-3.5 7.7-7.8 7.7z"/><path fill="#7fbec6" d="M421.7 251.7H272.8a21.1 21.1 0 0 1 0-42.2h131.6l25.1-126.2a7.7 7.7 0 0 1 7.6-6.2h16a7.7 7.7 0 1 1 0 15.4h-9.6l-25.2 126.2a7.7 7.7 0 0 1-7.6 6.2H272.8a5.7 5.7 0 0 0 0 11.3h149a7.7 7.7 0 1 1 0 15.5z"/><g fill="#3c8b96"><circle cx="302.8" cy="261.5" r="17.5"/><circle cx="390.9" cy="261.5" r="17.5"/></g><path fill="#d2d5d9" d="M105.4 70.5a7.7 7.7 0 0 0-10.6 0L77.4 86.8A7.7 7.7 0 0 0 88 98.1l4.4-4.1v19.6a7.7 7.7 0 1 0 15.4 0V94l4.4 4a7.7 7.7 0 0 0 10.9-.3c3-3 2.8-8-.3-10.9zm79.9 16.3-17.4-16.3a7.7 7.7 0 0 0-10.6 0l-17.4 16.3a7.7 7.7 0 0 0 10.6 11.3L155 94v19.6a7.7 7.7 0 1 0 15.4 0V94l4.4 4a7.7 7.7 0 0 0 10.9-.3c3-3 2.8-8-.3-10.9zm-67.8 168H64.4a7.7 7.7 0 1 1 0-15.5h53a7.7 7.7 0 1 1 0 15.5zm85 27.3H64.3a7.7 7.7 0 1 1 0-15.4h138a7.7 7.7 0 0 1 0 15.4z"/><path fill="#5ba7b1" d="M192.1 204.8H74.7c-5.7 0-10.3-4.6-10.3-10.3v-31.2c0-5.6 4.6-10.3 10.3-10.3H192c5.7 0 10.3 4.7 10.3 10.3v31.2c0 5.7-4.6 10.3-10.3 10.3z"/></g></svg>