<svg xmlns="http://www.w3.org/2000/svg" width="512" height="512"><g fill="none"><path fill="#dcb35c" d="M345 151v174.8c0 3.7-2.9 6.7-6.5 6.7H21.9c-3.7 0-6.7-3-6.7-6.7V151z"/><path fill="#cd992c" d="M345 158.5v-23.2c0-3.7-2.9-6.7-6.5-6.7H21.9c-3.7 0-6.7 3-6.7 6.7v23.2z"/><path fill="#7fbec6" d="M396 322.4V372H10.2C4.6 372 0 367.4 0 361.7v-29c0-5.7 4.6-10.3 10.3-10.3z"/><path fill="#5ba7b1" d="M430.4 178.8a7.7 7.7 0 0 1-7.7-7.8v-24.3a7.7 7.7 0 1 1 15.5 0V171c0 4.3-3.5 7.8-7.8 7.8z"/><path fill="#7fbec6" d="M512 280.9v80.8c0 5.6-4.6 10.3-10.3 10.3H385.2V179c0-5.7 4.6-10.4 10.3-10.4h72.3c4.8 0 9 3.4 10 8.1l4.8 21.5 2 9h-45.2v47.6h55.8l2 9.1 11 9c2.4 2 3.8 4.9 3.8 8z"/><path fill="#f0f1f2" d="M497.2 264h-56.8c-5.7 0-10.3-4.7-10.3-10.4v-45.1c0-5.7 4.6-10.3 10.3-10.3h42.2l6 27 3.6 16.4z"/><path fill="#d2d5d9" d="M457.5 234.1V264h-15.4v-29.8a7.7 7.7 0 0 1 15.4 0z"/><path fill="#5ba7b1" d="M416.5 128.8v81c0 4.3-3.4 7.8-7.7 7.8h-24.4a5.2 5.2 0 0 1-5.1-5.2v-5.1c0-2.9 2.3-5.2 5.1-5.2h16.7v-73a8 8 0 0 1 7.5-8c4.4-.2 8 3.4 8 7.7z"/><path fill="#cd992c" d="M72.9 296.7H54.6A4.7 4.7 0 0 1 50 292V191.4c0-2.6 2.1-4.7 4.7-4.7H73c2.6 0 4.7 2.1 4.7 4.7V292c0 2.6-2.1 4.7-4.7 4.7zm58.2 0h-18.3a4.7 4.7 0 0 1-4.7-4.7V191.4c0-2.6 2.1-4.7 4.7-4.7h18.3c2.6 0 4.7 2.1 4.7 4.7V292c0 2.6-2.1 4.7-4.7 4.7zm58.2 0H171a4.7 4.7 0 0 1-4.7-4.7V191.4c0-2.6 2.1-4.7 4.7-4.7h18.3c2.6 0 4.7 2.1 4.7 4.7V292c0 2.6-2 4.7-4.7 4.7zm58.2 0h-18.3a4.7 4.7 0 0 1-4.7-4.7V191.4c0-2.6 2.1-4.7 4.7-4.7h18.3c2.6 0 4.7 2.1 4.7 4.7V292c0 2.6-2 4.7-4.7 4.7zm58.2 0h-18.3a4.7 4.7 0 0 1-4.7-4.7V191.4c0-2.6 2.1-4.7 4.7-4.7h18.3c2.6 0 4.7 2.1 4.7 4.7V292c0 2.6-2 4.7-4.7 4.7z"/><g fill="#5ba7b1"><path d="M512 309.2v15.5h-28.3a7.7 7.7 0 0 1 0-15.5H512zM512 333v15.4h-17.9a7.7 7.7 0 0 1 0-15.5H512zM298 357.6h-67.4a7.7 7.7 0 1 1 0-15.4H298a7.7 7.7 0 1 1 0 15.4z"/></g><path fill="#d2d5d9" d="M64.5 403a26.5 26.5 0 1 0 0-53.1 26.5 26.5 0 0 0 0 53zm73 0a26.5 26.5 0 1 0 0-53.1 26.5 26.5 0 0 0 0 53zm299.3 0a26.5 26.5 0 1 0 0-53.1 26.5 26.5 0 0 0 0 53z"/><path fill="#9fa5ab" d="M64.5 384.1h-1a7.7 7.7 0 1 1 0-15.4h1a7.7 7.7 0 1 1 0 15.4zm73 0h-.9a7.7 7.7 0 1 1 0-15.4h1a7.7 7.7 0 1 1 0 15.4zm299.3 0h-1a7.7 7.7 0 1 1 0-15.4h1a7.7 7.7 0 1 1 0 15.4z"/></g></svg>