<svg xmlns="http://www.w3.org/2000/svg" width="512" height="512"><g fill="none"><path fill="#f0f1f2" d="M487.9 221.8v264.7h-54V319c0-4.5-3.6-8.2-8.1-8.2h-89.4a8.2 8.2 0 0 0-8.2 8.2v167.5h-304V221.8z"/><g fill="#7fbec6"><path d="M24.1 476h304.1v35.7h-299a5.2 5.2 0 0 1-5-5.1zM487.9 476v30.6c0 2.8-2.3 5.1-5.2 5.1H434V476z"/></g><path fill="#d2d5d9" d="M277.5 307.3v123.1c0 5.7-4.6 10.3-10.3 10.3H72c-5.7 0-10.3-4.6-10.3-10.3v-123c0-5.8 4.6-10.4 10.3-10.4h195.2c5.7 0 10.3 4.6 10.3 10.3z"/><path fill="#dcb35c" d="M447.6 307.3v204.4h-133V307.3c0-5.6 4.6-10.3 10.3-10.3h112.4c5.7 0 10.3 4.7 10.3 10.3z"/><path fill="#7fbec6" d="M341.8 325.2h78.6v51.5h-78.6zM40.8 253.2c-14.8 0-26.9-12-26.9-26.9v-39.2h53.8v39.2c0 14.9-12 27-26.9 27z"/><path fill="#7fbec6" d="M67.7 187.1v39.2A26.9 26.9 0 0 1 32.4 252 26.9 26.9 0 0 0 51 226.3v-39.2z"/><path fill="#5ba7b1" d="M94.6 253.2c-14.8 0-26.9-12-26.9-26.9v-39.2h53.8v39.2c0 14.9-12 27-26.9 27z"/><path fill="#7fbec6" d="M148.4 253.2c-14.9 0-26.9-12-26.9-26.9v-39.2h53.8v39.2c0 14.9-12 27-26.9 27z"/><path fill="#7fbec6" d="M175.3 187.1v39.2A26.9 26.9 0 0 1 140 252a26.9 26.9 0 0 0 18.6-25.6v-39.2z"/><path fill="#5ba7b1" d="M202.2 253.2c-14.9 0-26.9-12-26.9-26.9v-39.2h53.8v39.2c0 14.9-12 27-26.9 27z"/><path fill="#7fbec6" d="M256 253.2c-14.9 0-26.9-12-26.9-26.9v-39.2h53.8v39.2c0 14.9-12 27-26.9 27z"/><path fill="#7fbec6" d="M282.9 187.1v39.2a26.9 26.9 0 0 1-35.3 25.6 26.9 26.9 0 0 0 18.6-25.6v-39.2z"/><path fill="#5ba7b1" d="M309.8 253.2c-14.9 0-26.9-12-26.9-26.9v-39.2h53.8v39.2c0 14.9-12 27-26.9 27z"/><path fill="#7fbec6" d="M363.6 253.2c-14.9 0-26.9-12-26.9-26.9v-39.2h53.8v39.2c0 14.9-12 27-26.9 27z"/><path fill="#7fbec6" d="M390.5 187.1v39.2a26.9 26.9 0 0 1-35.3 25.6 26.9 26.9 0 0 0 18.6-25.6v-39.2z"/><path fill="#5ba7b1" d="M417.4 253.2c-14.9 0-27-12-27-26.9v-39.2h53.9v39.2c0 14.9-12 27-27 27z"/><g fill="#7fbec6"><path d="M471.2 253.2c-14.9 0-27-12-27-26.9v-39.2h53.9v39.2c0 14.9-12 27-27 27z"/><path d="M498 187.1v39.2a26.9 26.9 0 0 1-35.2 25.6 26.9 26.9 0 0 0 18.6-25.6v-39.2z"/></g><g fill="#e4e5e6"><path d="M94.3 108.6v49.2a7.7 7.7 0 0 1-15.4 0v-49.2a7.7 7.7 0 1 1 15.4 0zM124.4 108.6v49.2a7.7 7.7 0 1 1-15.5 0v-49.2a7.7 7.7 0 0 1 15.5 0zM403 108.6v49.2a7.7 7.7 0 0 1-15.4 0v-49.2a7.7 7.7 0 1 1 15.5 0zM433.1 108.6v49.2a7.7 7.7 0 1 1-15.4 0v-49.2a7.7 7.7 0 0 1 15.4 0z"/></g><path fill="#f0f1f2" d="M501.7 191.9H10.3c-5.7 0-10.3-4.7-10.3-10.3V165c0-5.7 4.6-10.3 10.3-10.3h491.4c5.7 0 10.3 4.6 10.3 10.3v16.6c0 5.6-4.6 10.3-10.3 10.3z"/><path fill="#7fbec6" d="M449.2 111.7H62.8c-5.6 0-10.3-4.6-10.3-10.3v-69c0-5.7 4.7-10.3 10.3-10.3h386.4c5.6 0 10.3 4.6 10.3 10.3v69c0 5.7-4.7 10.3-10.3 10.3z"/><g fill="#fff"><path d="M328.1 61H184a7.7 7.7 0 1 1 0-15.4H328a7.7 7.7 0 1 1 0 15.4zM381.1 88.2H130.9a7.7 7.7 0 1 1 0-15.4h250.2a7.7 7.7 0 1 1 0 15.4z"/></g><path fill="#b07d12" d="M355.2 418.4H343a7.7 7.7 0 1 1 0-15.4h12.3a7.7 7.7 0 1 1 0 15.4z"/></g></svg>