<svg xmlns="http://www.w3.org/2000/svg" width="512" height="512"><g fill="none"><path fill="#f0f1f2" d="M512 117.6v247H0v-247C0 106.2 9.2 97 20.6 97h470.8c11.4 0 20.6 9.2 20.6 20.6z"/><path fill="#7fbec6" d="M512 353v41c0 11.3-9.2 20.6-20.6 20.6H20.6A20.6 20.6 0 0 1 0 394v-41z"/><path fill="#d2d5d9" d="M48 266.4a7.7 7.7 0 0 1-7.7-7.7v-13.4a7.7 7.7 0 1 1 15.4 0v13.4c0 4.2-3.5 7.7-7.7 7.7zm29 0a7.7 7.7 0 0 1-7.6-7.7v-13.4a7.7 7.7 0 1 1 15.4 0v13.4c0 4.2-3.4 7.7-7.7 7.7zm29.2 0a7.7 7.7 0 0 1-7.7-7.7v-13.4a7.7 7.7 0 1 1 15.4 0v13.4c0 4.2-3.4 7.7-7.7 7.7zm29.1 0a7.7 7.7 0 0 1-7.7-7.7v-13.4a7.7 7.7 0 1 1 15.4 0v13.4c0 4.2-3.4 7.7-7.7 7.7zm46.8 0a7.7 7.7 0 0 1-7.8-7.7v-13.4a7.7 7.7 0 1 1 15.5 0v13.4c0 4.2-3.5 7.7-7.7 7.7zm29 0a7.7 7.7 0 0 1-7.7-7.7v-13.4a7.7 7.7 0 1 1 15.5 0v13.4c0 4.2-3.5 7.7-7.7 7.7zm29.2 0a7.7 7.7 0 0 1-7.7-7.7v-13.4a7.7 7.7 0 1 1 15.4 0v13.4c0 4.2-3.5 7.7-7.7 7.7zm29 0a7.7 7.7 0 0 1-7.6-7.7v-13.4a7.7 7.7 0 1 1 15.4 0v13.4c0 4.2-3.4 7.7-7.7 7.7zm46.8 0a7.7 7.7 0 0 1-7.7-7.7v-13.4a7.7 7.7 0 1 1 15.5 0v13.4c0 4.2-3.5 7.7-7.8 7.7zm29.1 0a7.7 7.7 0 0 1-7.7-7.7v-13.4a7.7 7.7 0 1 1 15.5 0v13.4c0 4.2-3.5 7.7-7.8 7.7zm29.2 0a7.7 7.7 0 0 1-7.8-7.7v-13.4a7.7 7.7 0 1 1 15.5 0v13.4c0 4.2-3.5 7.7-7.7 7.7zm29 0a7.7 7.7 0 0 1-7.7-7.7v-13.4a7.7 7.7 0 1 1 15.5 0v13.4c0 4.2-3.5 7.7-7.7 7.7zM77.2 298.5H48a7.7 7.7 0 1 1 0-15.4h29a7.7 7.7 0 1 1 0 15.4zm105 27.2H48a7.7 7.7 0 1 1 0-15.5h134a7.7 7.7 0 1 1 0 15.5zm53.9 0h-15.8a7.7 7.7 0 1 1 0-15.5H236a7.7 7.7 0 1 1 0 15.5z"/><path fill="#dcb35c" d="M124.5 188.5c0 2.8-2.3 5.1-5.2 5.1H53.1a5.2 5.2 0 0 1-5.1-5.1v-45.7c0-2.8 2.3-5.1 5.1-5.1h66.2c2.9 0 5.2 2.3 5.2 5.1v45.7z"/><path fill="#cd992c" d="M94 137.7v18.7a7.7 7.7 0 1 1-15.5 0v-18.7zm30.5 23.8V177h-15a7.7 7.7 0 0 1 0-15.5h15zm-53.7 7.7c0 4.3-3.5 7.8-7.8 7.8H48v-15.5h15c4.3 0 7.8 3.5 7.8 7.7z"/><path fill="#5ba7b1" d="M440.8 180.3H328c-5.7 0-10.3-4.6-10.3-10.3v-22c0-5.7 4.6-10.3 10.3-10.3h113c5.6 0 10.2 4.6 10.2 10.3v22c0 5.7-4.6 10.3-10.3 10.3z"/></g></svg>